<svg xmlns="http://www.w3.org/2000/svg" width="14.96" height="12" viewBox="0 0 14.96 12">
  <metadata><?xpacket begin="﻿" id="W5M0MpCehiHzreSzNTczkc9d"?>
<x:xmpmeta xmlns:x="adobe:ns:meta/" x:xmptk="Adobe XMP Core 5.6-c142 79.160924, 2017/07/13-01:06:39        ">
   <rdf:RDF xmlns:rdf="http://www.w3.org/1999/02/22-rdf-syntax-ns#">
      <rdf:Description rdf:about=""/>
   </rdf:RDF>
</x:xmpmeta>
                                                                                                    
                                                                                                    
                                                                                                    
                                                                                                    
                                                                                                    
                                                                                                    
                                                                                                    
                                                                                                    
                                                                                                    
                                                                                                    
                                                                                                    
                                                                                                    
                                                                                                    
                                                                                                    
                                                                                                    
                                                                                                    
                                                                                                    
                                                                                                    
                                                                                                    
                                                                                                    
                           
<?xpacket end="w"?></metadata>
<defs>
    <style>
      .cls-1 {
        fill-rule: evenodd;
      }
    </style>
  </defs>
  <path id="tw" class="cls-1" d="M1080.31,43a1.654,1.654,0,0,1,.03.375,8.5,8.5,0,0,1-1.03,4.01,8.241,8.241,0,0,1-2.95,3.259A8.5,8.5,0,0,1,1071.59,52a8.638,8.638,0,0,1-4.71-1.356c0.22,0.02.46,0.029,0.74,0.029a6.145,6.145,0,0,0,3.83-1.3,2.857,2.857,0,0,1-1.8-.592,3.028,3.028,0,0,1-1.07-1.485c0.2,0.019.38,0.028,0.56,0.028a3.838,3.838,0,0,0,.81-0.086,3.108,3.108,0,0,1-1.75-1.067,2.868,2.868,0,0,1-.7-1.9V44.211a2.931,2.931,0,0,0,1.37.4,3.316,3.316,0,0,1-.99-1.1,2.91,2.91,0,0,1-.38-1.456,2.8,2.8,0,0,1,.44-1.514,8.45,8.45,0,0,0,2.79,2.25,8.6,8.6,0,0,0,3.52.923,4.034,4.034,0,0,1-.05-0.693,3,3,0,0,1,.4-1.515,3.048,3.048,0,0,1,1.12-1.11,3.071,3.071,0,0,1,2.76-.144,3.454,3.454,0,0,1,1.01.691,6.364,6.364,0,0,0,1.96-.72,3.017,3.017,0,0,1-1.35,1.672,6.707,6.707,0,0,0,1.76-.49A6.82,6.82,0,0,1,1080.31,43Z" transform="translate(-1066.88 -40)"/>
</svg>
