<svg xmlns="http://www.w3.org/2000/svg" width="21" height="20" viewBox="0 0 21 20">
  <metadata><?xpacket begin="﻿" id="W5M0MpCehiHzreSzNTczkc9d"?>
<x:xmpmeta xmlns:x="adobe:ns:meta/" x:xmptk="Adobe XMP Core 5.6-c142 79.160924, 2017/07/13-01:06:39        ">
   <rdf:RDF xmlns:rdf="http://www.w3.org/1999/02/22-rdf-syntax-ns#">
      <rdf:Description rdf:about=""/>
   </rdf:RDF>
</x:xmpmeta>
                                                                                                    
                                                                                                    
                                                                                                    
                                                                                                    
                                                                                                    
                                                                                                    
                                                                                                    
                                                                                                    
                                                                                                    
                                                                                                    
                                                                                                    
                                                                                                    
                                                                                                    
                                                                                                    
                                                                                                    
                                                                                                    
                                                                                                    
                                                                                                    
                                                                                                    
                                                                                                    
                           
<?xpacket end="w"?></metadata>
<defs>
    <style>
      .cls-1 {
        fill-rule: evenodd;
      }
    </style>
  </defs>
  <path id="Фигура_18_копия_3" data-name="Фигура 18 копия 3" class="cls-1" d="M948.608,3359.02l-0.211.02,0.1,0.17,0.191-.02-0.085-.17m0.49,0.01,0.043,0.2,0.211,0.05-0.042-.21-0.212-.04m0.813,1.3-0.127.02-0.042.13,0.085,0.16a0.252,0.252,0,0,0,.179.1,0.157,0.157,0,0,0,.117-0.06l0.021-.12-0.084-.15-0.149-.08m2.733,0.66c-0.141.03-.205,0.08-0.19,0.17l0.084,0.14,0.148,0.02a0.21,0.21,0,0,0,.191-0.21,0.2,0.2,0,0,0-.233-0.12m-0.658,0a0.173,0.173,0,0,0-.212.17c0,0.1.061,0.14,0.184,0.14h0.049a0.2,0.2,0,0,0,.233-0.19l-0.064-.08-0.19-.04m-1.4,0a0.144,0.144,0,0,0-.152.12l0.021,0.11,0.149,0.1h0.169l0.106-.15c0.014-.07-0.049-0.12-0.191-0.16a0.435,0.435,0,0,0-.1-0.02m4.785-15.98a10.689,10.689,0,0,0-5.292,1.32,9.668,9.668,0,0,0-3.726,3.64,9.919,9.919,0,0,0-1.355,5.12,10.081,10.081,0,0,0,1.99,6.13,10.194,10.194,0,0,0,5.208,3.74,0.816,0.816,0,0,0,.209.03,0.488,0.488,0,0,0,.32-0.11,0.545,0.545,0,0,0,.19-0.42l-0.042-2.52-0.466.04a4.411,4.411,0,0,1-.714.06c-0.117,0-.231-0.01-0.344-0.01a3.164,3.164,0,0,1-1.228-.38,1.659,1.659,0,0,1-.8-0.95l-0.17-.33a2.993,2.993,0,0,0-.423-0.66,2.024,2.024,0,0,0-.593-0.53l-0.212-.17a0.361,0.361,0,0,1-.19-0.31c0.014-.1.176-0.14,0.487-0.14l0.3,0.04a4.136,4.136,0,0,1,.635.29,2.16,2.16,0,0,1,.678.74c0.009,0.02.018,0.03,0.027,0.05l-0.07.01c-0.056.02-.056,0.11,0,0.25l0.149,0.08h0.105a0.207,0.207,0,0,0,.034-0.03,1.957,1.957,0,0,0,1.448.75,1.251,1.251,0,0,0,.273.02,2.776,2.776,0,0,0,1.124-.26,2.235,2.235,0,0,1,.678-1.41,11.844,11.844,0,0,1-2.287-.41,3.455,3.455,0,0,1-1.778-1.28,5.248,5.248,0,0,1-.677-2.89,3.167,3.167,0,0,1,.233-1.3,5.288,5.288,0,0,1,.741-1.14,2.291,2.291,0,0,1-.17-0.95,3.779,3.779,0,0,1,.3-1.82,1.034,1.034,0,0,1,.263-0.03,2.716,2.716,0,0,1,.88.2,9.7,9.7,0,0,1,1.228.58l0.55,0.37a9.3,9.3,0,0,1,2.646-.37,9.745,9.745,0,0,1,2.689.37l0.55-.37a11.84,11.84,0,0,1,1.185-.58,2.746,2.746,0,0,1,.9-0.2,1.24,1.24,0,0,1,.285.03,4.6,4.6,0,0,1,.3,1.82,3.161,3.161,0,0,1-.211.99,4.9,4.9,0,0,1,.8,1.04,2.927,2.927,0,0,1,.3,1.36,5.183,5.183,0,0,1-.72,2.93,3.841,3.841,0,0,1-1.821,1.24,11.949,11.949,0,0,1-2.328.41,2.308,2.308,0,0,1,.719,1.9v3.47a0.546,0.546,0,0,0,.191.42,0.487,0.487,0,0,0,.32.11,0.816,0.816,0,0,0,.209-0.03,10.306,10.306,0,0,0,7.113-9.87,9.714,9.714,0,0,0-1.44-5.17,9.984,9.984,0,0,0-3.852-3.59,11.092,11.092,0,0,0-5.335-1.32" transform="translate(-945 -3345)"/>
</svg>
