<svg xmlns="http://www.w3.org/2000/svg" width="14.216" height="14.219" viewBox="0 0 14.216 14.219">
  <metadata><?xpacket begin="﻿" id="W5M0MpCehiHzreSzNTczkc9d"?>
<x:xmpmeta xmlns:x="adobe:ns:meta/" x:xmptk="Adobe XMP Core 5.6-c142 79.160924, 2017/07/13-01:06:39        ">
   <rdf:RDF xmlns:rdf="http://www.w3.org/1999/02/22-rdf-syntax-ns#">
      <rdf:Description rdf:about=""/>
   </rdf:RDF>
</x:xmpmeta>
                                                                                                    
                                                                                                    
                                                                                                    
                                                                                                    
                                                                                                    
                                                                                                    
                                                                                                    
                                                                                                    
                                                                                                    
                                                                                                    
                                                                                                    
                                                                                                    
                                                                                                    
                                                                                                    
                                                                                                    
                                                                                                    
                                                                                                    
                                                                                                    
                                                                                                    
                                                                                                    
                           
<?xpacket end="w"?></metadata>
<defs>
    <style>
      .cls-1 {
        fill-rule: evenodd;
      }
    </style>
  </defs>
  <path id="skack" class="cls-1" d="M998.762,40.47c4.888-1.466,7.008-.326,8.468,4.562s0.33,7.006-4.56,8.472-7,.326-8.47-4.562S993.874,41.936,998.762,40.47Zm5.078,8.043,0.92-.307a0.738,0.738,0,1,0-.47-1.4l-0.92.309-0.61-1.83,0.92-.308a0.738,0.738,0,1,0-.47-1.4l-0.92.309-0.32-.954a0.738,0.738,0,0,0-1.4.468l0.32,0.954-1.9.637-0.318-.954a0.738,0.738,0,0,0-1.4.469l0.319,0.953-0.922.308a0.738,0.738,0,0,0,.215,1.437,0.729,0.729,0,0,0,.254-0.038l0.922-.31,0.612,1.829L997.754,49a0.737,0.737,0,0,0,.215,1.436,0.706,0.706,0,0,0,.253-0.037l0.922-.308,0.319,0.953a0.737,0.737,0,0,0,.677.5,0.786,0.786,0,0,0,.26-0.038,0.74,0.74,0,0,0,.46-0.934l-0.32-.953,1.9-.637,0.32,0.954a0.737,0.737,0,0,0,.68.5,0.768,0.768,0,0,0,.26-0.038,0.738,0.738,0,0,0,.46-0.932Zm-1.89-.909-1.85.617-0.617-1.851,1.847-.617Z" transform="translate(-993.594 -39.875)"/>
</svg>
