<svg xmlns="http://www.w3.org/2000/svg" width="17" height="12" viewBox="0 0 17 12">
  <metadata><?xpacket begin="﻿" id="W5M0MpCehiHzreSzNTczkc9d"?>
<x:xmpmeta xmlns:x="adobe:ns:meta/" x:xmptk="Adobe XMP Core 5.6-c142 79.160924, 2017/07/13-01:06:39        ">
   <rdf:RDF xmlns:rdf="http://www.w3.org/1999/02/22-rdf-syntax-ns#">
      <rdf:Description rdf:about=""/>
   </rdf:RDF>
</x:xmpmeta>
                                                                                                    
                                                                                                    
                                                                                                    
                                                                                                    
                                                                                                    
                                                                                                    
                                                                                                    
                                                                                                    
                                                                                                    
                                                                                                    
                                                                                                    
                                                                                                    
                                                                                                    
                                                                                                    
                                                                                                    
                                                                                                    
                                                                                                    
                                                                                                    
                                                                                                    
                                                                                                    
                           
<?xpacket end="w"?></metadata>
<defs>
    <style>
      .cls-1 {
        fill-rule: evenodd;
      }
    </style>
  </defs>
  <path id="yt" class="cls-1" d="M1145.74,48.212V43.419l4.59,2.4Zm10.08-5.625a3.786,3.786,0,0,0-.67-1.693,2.424,2.424,0,0,0-1.71-.722C1151.07,40,1147.5,40,1147.5,40h-0.01s-3.57,0-5.94.173a2.424,2.424,0,0,0-1.71.722,3.663,3.663,0,0,0-.67,1.693,25.915,25.915,0,0,0-.17,2.761v1.295a25.912,25.912,0,0,0,.17,2.762,3.664,3.664,0,0,0,.67,1.693,2.885,2.885,0,0,0,1.88.729c1.36,0.131,5.77.172,5.77,0.172s3.58-.006,5.95-0.177a2.441,2.441,0,0,0,1.71-.723,3.787,3.787,0,0,0,.67-1.693,25.912,25.912,0,0,0,.17-2.762V45.349A25.915,25.915,0,0,0,1155.82,42.587Z" transform="translate(-1139 -40)"/>
</svg>
