<?xml version="1.0" encoding="utf-8"?>
<!-- Generator: Adobe Illustrator 22.1.0, SVG Export Plug-In . SVG Version: 6.00 Build 0)  -->
<svg version="1.1" id="Capa_1" xmlns="http://www.w3.org/2000/svg" xmlns:xlink="http://www.w3.org/1999/xlink" x="0px" y="0px"
	 width="16px" height="16px" viewBox="0 0 16 16" style="enable-background:new 0 0 16 16;" xml:space="preserve">
<g>
	<path d="M13.7,2.3C15.2,3.9,16,5.9,16,8c0,2.1-0.8,4.1-2.3,5.7C12.1,15.2,10.1,16,8,16s-4.1-0.8-5.7-2.3C0.8,12.1,0,10.1,0,8
		c0-2.1,0.8-4.1,2.3-5.7S5.9,0,8,0S12.1,0.8,13.7,2.3z M12.9,12.9c1-1,1.6-2.2,1.9-3.5c-0.2,0.3-0.4,0.4-0.5-0.3
		c-0.1-1.1-1.2-0.4-1.8-0.8c-0.7,0.5-2.2-0.9-2,0.6c0.4,0.7,2.2-0.9,1.3,0.5c-0.6,1-2.1,3.3-1.9,4.5c0,1.7-1.8,0.4-2.4-0.2
		c-0.4-1.1-0.1-3.1-1.2-3.7C5.2,10,4.2,9.9,3.7,8.6C3.5,7.7,4,6.3,5,6.1c1.5-0.9,2,1.1,3.4,1.1c0.4-0.4,1.6-0.6,1.7-1.1
		C9.2,5.9,11.2,5.3,10,5C9.3,5.1,8.9,5.7,9.3,6.2C7.9,6.5,7.9,4.3,6.6,5c0,1.1-2.1,0.4-0.7,0.1C6.4,5,5.2,4.4,5.8,4.5
		c0.3,0,1.4-0.4,1.1-0.7c0.6-0.4,1.1,0.9,1.7,0C9.1,3.1,8.5,2.9,8,3.3C7.7,2.9,8.5,2.2,9.2,1.9c0.2-0.1,0.5-0.2,0.7-0.1
		C10.3,2.2,11,2.2,11,1.7C10.1,1.2,9.1,1,8,1C6.5,1,5,1.5,3.8,2.4C4.1,2.5,4.3,2.7,4,2.9C3.8,3.7,2.8,4.6,1.9,4.5
		C1.5,5.3,1.2,6.1,1.1,7C1.8,7.2,2,7.7,1.8,7.9C1.4,8.2,1.2,8.6,1.1,9.1c0.2,1.4,0.9,2.8,2,3.8C4.4,14.3,6.1,15,8,15
		C9.9,15,11.6,14.3,12.9,12.9z"/>
</g>
</svg>
