<svg xmlns="http://www.w3.org/2000/svg" viewBox="0 0 149.344 41.751">
  <defs>
    <style>
      .cls-1 {
        fill: #009ce4;
      }

      .cls-2 {
        fill: #e40061;
      }
    </style>
  </defs>
  <path id="LOGO" class="cls-1" d="M80.46,113.039h25.259v-7.68H89.64V72.6H80.46v40.439Zm46.2-41.1c-11.94,0-19.68,9.06-19.68,21.179,0,11.519,7.02,20.579,19.02,20.579,11.819,0,19.859-8.04,19.859-21.3C145.858,81.24,139.078,71.94,126.659,71.94Zm-0.24,7.26c6.3,0,9.779,6.24,9.779,13.5,0,7.859-3.54,13.739-9.719,13.739-6.12,0-9.84-5.58-9.84-13.5C116.639,85.08,120.239,79.2,126.419,79.2Zm59.219,10.68h-15.06v7.14h6.24v8.46a12.245,12.245,0,0,1-4.5.6c-7.5,0-12.719-4.92-12.719-13.259,0-8.76,5.76-13.079,13.379-13.079a22.409,22.409,0,0,1,9.42,1.74l1.92-7.32a27.856,27.856,0,0,0-11.22-1.98c-13.259,0-23.039,7.68-23.1,21.119-0.06,5.94,1.98,11.219,5.7,14.7,3.72,3.6,9.06,5.46,16.439,5.46a45.256,45.256,0,0,0,13.5-2.28V89.88ZM210.6,71.94c-11.94,0-19.679,9.06-19.679,21.179,0,11.519,7.019,20.579,19.019,20.579,11.819,0,19.859-8.04,19.859-21.3C229.8,81.24,223.017,71.94,210.6,71.94Zm-0.24,7.26c6.3,0,9.779,6.24,9.779,13.5,0,7.859-3.539,13.739-9.719,13.739-6.12,0-9.84-5.58-9.84-13.5C200.578,85.08,204.178,79.2,210.358,79.2Z" transform="translate(-80.469 -71.938)"/>
  <path id="DUMMY" class="cls-2" d="M84.54,112.007a31.7,31.7,0,0,0,4.143-.372c3.134-.465,5.6-1.51,7.077-3.161a8.2,8.2,0,0,0,1.7-6.876,7.157,7.157,0,0,0-3.6-5.629c-1.716-.934-3.767-1.188-6.806-0.737a32.66,32.66,0,0,0-4.842,1.058Zm1.685-13.669a7.605,7.605,0,0,1,1.617-.385c3.11-.461,5.318,1.007,5.787,4.334,0.567,3.823-1.3,5.944-4.582,6.406a6.767,6.767,0,0,1-1.269.116ZM113.4,91.445l1.324,8.927c0.757,5.105,3.462,6.984,7.5,6.386,4.179-.62,6.323-3.341,5.591-8.279L126.478,89.5l-3.609.535,1.366,9.212c0.419,2.825-.428,4.31-2.328,4.591-1.851.275-3.1-.971-3.512-3.725l-1.367-9.212Zm47.077,9.371,3.538-.525-3.252-15.872-4.725.7-0.921,5.572c-0.258,1.858-.491,4.052-0.667,5.971l-0.071.01c-0.635-1.823-1.429-3.743-2.2-5.521l-2.36-5.11-4.819.715,1.352,16.154,3.348-.5-0.617-6.12c-0.177-2.012-.472-4.492-0.7-6.666l0.047-.007c0.69,2.033,1.574,4.231,2.375,6.029l2.628,5.943,2.826-.419,1.02-6.533c0.339-1.967.666-4.345,0.862-6.461l0.071-.011c0.345,2.327.762,4.643,1.118,6.555Zm34.8-5.162,3.538-.525-3.252-15.872-4.725.7-0.921,5.572c-0.258,1.858-.491,4.052-0.667,5.971l-0.071.011c-0.635-1.823-1.429-3.743-2.2-5.521l-2.36-5.11L179.8,81.6l1.352,16.154,3.348-.5-0.617-6.12c-0.177-2.012-.472-4.492-0.7-6.666l0.047-.007c0.69,2.033,1.574,4.231,2.375,6.029l2.628,5.943,2.826-.419,1.02-6.533c0.339-1.967.666-4.345,0.862-6.461l0.071-.011c0.345,2.327.762,4.643,1.118,6.556Zm28.345-4.2-0.989-6.672,3.886-10.113-4.06.6-1.044,4.086c-0.3,1.21-.548,2.192-0.756,3.242l-0.048.007c-0.558-.985-1.017-1.79-1.688-2.88l-2.209-3.6-4.131.613,6.458,8.7,0.972,6.553Z" transform="translate(-80.469 -71.938)"/>
</svg>
