<?xml version="1.0" encoding="utf-8"?><svg width="106" height="99" viewBox="0 0 106 99" xmlns="http://www.w3.org/2000/svg" xmlns:xlink="http://www.w3.org/1999/xlink"><svg width="6" height="12" viewBox="0 0 6 12" id="socials_fb" xmlns="http://www.w3.org/2000/svg"><defs><style>.acls-1{fill-rule:evenodd}</style></defs><path id="afb" class="acls-1" d="M1219.3 43.323v1.651h-1.3V47h1.3v6h2.66v-6h1.79s.17-.969.25-2.028h-2.03v-1.385a.614.614 0 0 1 .58-.484h1.45V41h-1.97c-2.8 0-2.73 2.021-2.73 2.323z" transform="translate(-1218 -41)"/></svg><svg width="21" height="20" viewBox="0 0 21 20" id="socials_gh" x="6" y="12" xmlns="http://www.w3.org/2000/svg"><defs><style>.bcls-1{fill-rule:evenodd}</style></defs><path id="bФигура_18_копия_3" data-name="Фигура 18 копия 3" class="bcls-1" d="M948.608 3359.02l-.211.02.1.17.191-.02-.085-.17m.49.01l.043.2.211.05-.042-.21-.212-.04m.813 1.3l-.127.02-.042.13.085.16a.252.252 0 0 0 .179.1.157.157 0 0 0 .117-.06l.021-.12-.084-.15-.149-.08m2.733.66c-.141.03-.205.08-.19.17l.084.14.148.02a.21.21 0 0 0 .191-.21.2.2 0 0 0-.233-.12m-.658 0a.173.173 0 0 0-.212.17c0 .1.061.14.184.14h.049a.2.2 0 0 0 .233-.19l-.064-.08-.19-.04m-1.4 0a.144.144 0 0 0-.152.12l.021.11.149.1h.169l.106-.15c.014-.07-.049-.12-.191-.16a.435.435 0 0 0-.1-.02m4.785-15.98a10.689 10.689 0 0 0-5.292 1.32 9.668 9.668 0 0 0-3.726 3.64 9.919 9.919 0 0 0-1.355 5.12 10.081 10.081 0 0 0 1.99 6.13 10.194 10.194 0 0 0 5.208 3.74.816.816 0 0 0 .209.03.488.488 0 0 0 .32-.11.545.545 0 0 0 .19-.42l-.042-2.52-.466.04a4.411 4.411 0 0 1-.714.06c-.117 0-.231-.01-.344-.01a3.164 3.164 0 0 1-1.228-.38 1.659 1.659 0 0 1-.8-.95l-.17-.33a2.993 2.993 0 0 0-.423-.66 2.024 2.024 0 0 0-.593-.53l-.212-.17a.361.361 0 0 1-.19-.31c.014-.1.176-.14.487-.14l.3.04a4.136 4.136 0 0 1 .635.29 2.16 2.16 0 0 1 .678.74c.009.02.018.03.027.05l-.07.01c-.056.02-.056.11 0 .25l.149.08h.105a.207.207 0 0 0 .034-.03 1.957 1.957 0 0 0 1.448.75 1.251 1.251 0 0 0 .273.02 2.776 2.776 0 0 0 1.124-.26 2.235 2.235 0 0 1 .678-1.41 11.844 11.844 0 0 1-2.287-.41 3.455 3.455 0 0 1-1.778-1.28 5.248 5.248 0 0 1-.677-2.89 3.167 3.167 0 0 1 .233-1.3 5.288 5.288 0 0 1 .741-1.14 2.291 2.291 0 0 1-.17-.95 3.779 3.779 0 0 1 .3-1.82 1.034 1.034 0 0 1 .263-.03 2.716 2.716 0 0 1 .88.2 9.7 9.7 0 0 1 1.228.58l.55.37a9.3 9.3 0 0 1 2.646-.37 9.745 9.745 0 0 1 2.689.37l.55-.37a11.84 11.84 0 0 1 1.185-.58 2.746 2.746 0 0 1 .9-.2 1.24 1.24 0 0 1 .285.03 4.6 4.6 0 0 1 .3 1.82 3.161 3.161 0 0 1-.211.99 4.9 4.9 0 0 1 .8 1.04 2.927 2.927 0 0 1 .3 1.36 5.183 5.183 0 0 1-.72 2.93 3.841 3.841 0 0 1-1.821 1.24 11.949 11.949 0 0 1-2.328.41 2.308 2.308 0 0 1 .719 1.9v3.47a.546.546 0 0 0 .191.42.487.487 0 0 0 .32.11.816.816 0 0 0 .209-.03 10.306 10.306 0 0 0 7.113-9.87 9.714 9.714 0 0 0-1.44-5.17 9.984 9.984 0 0 0-3.852-3.59 11.092 11.092 0 0 0-5.335-1.32" transform="translate(-945 -3345)"/></svg><svg width="15.07" height="12" viewBox="0 0 15.07 12" id="socials_med" x="27" y="32" xmlns="http://www.w3.org/2000/svg"><defs><style>.ccls-1{fill-rule:evenodd}</style></defs><path id="cmedium" class="ccls-1" d="M1301.64 43.74h-.59a.675.675 0 0 0-.53.526V51.7a.63.63 0 0 0 .53.486h.59v1.765h-5.39V52.19h1.13v-7.82h-.05l-2.64 9.585h-2.04l-2.6-9.585h-.07v7.82h1.13v1.765h-4.51V52.19h.58a.642.642 0 0 0 .55-.486v-7.439a.686.686 0 0 0-.55-.526h-.58v-1.765h5.64l1.86 6.937h.05l1.87-6.937h5.62v1.766z" transform="translate(-1286.59 -41.969)"/></svg><svg width="14.216" height="14.219" viewBox="0 0 14.216 14.219" id="socials_sl" x="43" y="44" xmlns="http://www.w3.org/2000/svg"><defs><style>.dcls-1{fill-rule:evenodd}</style></defs><path id="dskack" class="dcls-1" d="M998.762 40.47c4.888-1.466 7.008-.326 8.468 4.562s.33 7.006-4.56 8.472-7 .326-8.47-4.562-.326-7.006 4.562-8.472zm5.078 8.043l.92-.307a.738.738 0 1 0-.47-1.4l-.92.309-.61-1.83.92-.308a.738.738 0 1 0-.47-1.4l-.92.309-.32-.954a.738.738 0 0 0-1.4.468l.32.954-1.9.637-.318-.954a.738.738 0 0 0-1.4.469l.319.953-.922.308a.738.738 0 0 0 .215 1.437.729.729 0 0 0 .254-.038l.922-.31.612 1.829-.918.315a.737.737 0 0 0 .215 1.436.706.706 0 0 0 .253-.037l.922-.308.319.953a.737.737 0 0 0 .677.5.786.786 0 0 0 .26-.038.74.74 0 0 0 .46-.934l-.32-.953 1.9-.637.32.954a.737.737 0 0 0 .68.5.768.768 0 0 0 .26-.038.738.738 0 0 0 .46-.932zm-1.89-.909l-1.85.617-.617-1.851 1.847-.617z" transform="translate(-993.594 -39.875)"/></svg><svg width="14.96" height="12" viewBox="0 0 14.96 12" id="socials_tw" x="58" y="59" xmlns="http://www.w3.org/2000/svg"><defs><style>.ecls-1{fill-rule:evenodd}</style></defs><path id="etw" class="ecls-1" d="M1080.31 43a1.654 1.654 0 0 1 .03.375 8.5 8.5 0 0 1-1.03 4.01 8.241 8.241 0 0 1-2.95 3.259 8.5 8.5 0 0 1-4.77 1.356 8.638 8.638 0 0 1-4.71-1.356c.22.02.46.029.74.029a6.145 6.145 0 0 0 3.83-1.3 2.857 2.857 0 0 1-1.8-.592 3.028 3.028 0 0 1-1.07-1.485c.2.019.38.028.56.028a3.838 3.838 0 0 0 .81-.086 3.108 3.108 0 0 1-1.75-1.067 2.868 2.868 0 0 1-.7-1.9v-.06a2.931 2.931 0 0 0 1.37.4 3.316 3.316 0 0 1-.99-1.1 2.91 2.91 0 0 1-.38-1.456 2.8 2.8 0 0 1 .44-1.514 8.45 8.45 0 0 0 2.79 2.25 8.6 8.6 0 0 0 3.52.923 4.034 4.034 0 0 1-.05-.693 3 3 0 0 1 .4-1.515 3.048 3.048 0 0 1 1.12-1.11 3.071 3.071 0 0 1 2.76-.144 3.454 3.454 0 0 1 1.01.691 6.364 6.364 0 0 0 1.96-.72 3.017 3.017 0 0 1-1.35 1.672 6.707 6.707 0 0 0 1.76-.49 6.82 6.82 0 0 1-1.55 1.595z" transform="translate(-1066.88 -40)"/></svg><svg width="16" height="16" viewBox="0 0 16 16" id="socials_web" x="73" y="71" xmlns="http://www.w3.org/2000/svg"><path d="M13.7 2.3C15.2 3.9 16 5.9 16 8s-.8 4.1-2.3 5.7C12.1 15.2 10.1 16 8 16s-4.1-.8-5.7-2.3C.8 12.1 0 10.1 0 8s.8-4.1 2.3-5.7S5.9 0 8 0s4.1.8 5.7 2.3zm-.8 10.6c1-1 1.6-2.2 1.9-3.5-.2.3-.4.4-.5-.3-.1-1.1-1.2-.4-1.8-.8-.7.5-2.2-.9-2 .6.4.7 2.2-.9 1.3.5-.6 1-2.1 3.3-1.9 4.5 0 1.7-1.8.4-2.4-.2-.4-1.1-.1-3.1-1.2-3.7-1.1 0-2.1-.1-2.6-1.4-.2-.9.3-2.3 1.3-2.5 1.5-.9 2 1.1 3.4 1.1.4-.4 1.6-.6 1.7-1.1-.9-.2 1.1-.8-.1-1.1-.7.1-1.1.7-.7 1.2-1.4.3-1.4-1.9-2.7-1.2 0 1.1-2.1.4-.7.1.5-.1-.7-.7-.1-.6.3 0 1.4-.4 1.1-.7.6-.4 1.1.9 1.7 0 .5-.7-.1-.9-.6-.5-.3-.4.5-1.1 1.2-1.4.2-.1.5-.2.7-.1.4.4 1.1.4 1.1-.1-.9-.5-1.9-.7-3-.7-1.5 0-3 .5-4.2 1.4.3.1.5.3.2.5-.2.8-1.2 1.7-2.1 1.6-.4.8-.7 1.6-.8 2.5.7.2.9.7.7.9-.4.3-.6.7-.7 1.2.2 1.4.9 2.8 2 3.8C4.4 14.3 6.1 15 8 15c1.9 0 3.6-.7 4.9-2.1z"/></svg><svg width="17" height="12" viewBox="0 0 17 12" id="socials_yt" x="89" y="87" xmlns="http://www.w3.org/2000/svg"><defs><style>.gcls-1{fill-rule:evenodd}</style></defs><path id="gyt" class="gcls-1" d="M1145.74 48.212v-4.793l4.59 2.4zm10.08-5.625a3.786 3.786 0 0 0-.67-1.693 2.424 2.424 0 0 0-1.71-.722c-2.37-.172-5.94-.172-5.94-.172h-.01s-3.57 0-5.94.173a2.424 2.424 0 0 0-1.71.722 3.663 3.663 0 0 0-.67 1.693 25.915 25.915 0 0 0-.17 2.761v1.295a25.912 25.912 0 0 0 .17 2.762 3.664 3.664 0 0 0 .67 1.693 2.885 2.885 0 0 0 1.88.729c1.36.131 5.77.172 5.77.172s3.58-.006 5.95-.177a2.441 2.441 0 0 0 1.71-.723 3.787 3.787 0 0 0 .67-1.693 25.912 25.912 0 0 0 .17-2.762v-1.296a25.915 25.915 0 0 0-.17-2.762z" transform="translate(-1139 -40)"/></svg></svg>